<svg width="894" height="252" viewBox="0 0 894 252" fill="none" xmlns="http://www.w3.org/2000/svg">
<path d="M169.39 148.89V61.07L154.73 46.16H154.5V45.93L131.71 22.74L131.05 22.06L109.37 0L87.63 22.06L87.02 22.69L64.1 45.95V46.17H63.88L49.19 61.08V94.09H0V247.03H64.1V108.98H116.82V148.9H87.02V208.82H131.71V163.81H154.5V247.03H218.74V148.91H169.39V148.89ZM49.19 232.12H14.89V108.96H49.19V232.12ZM116.82 193.92H101.93V163.8H116.82V193.92ZM131.71 148.89V94.08H64.1V61.07L78.56 46.16L87.02 37.45L101.93 22.09V22.05H101.97L109.3 14.49L116.65 22.05H116.83V22.25L131.72 37.59L140.03 46.16L154.51 61.07V148.89H131.72H131.71ZM203.85 232.12H169.39V163.8H203.85V232.12Z" fill="url(#paint0_linear_72_120)"/>
<path d="M535.01 159.199H528.44V205.059H535.01V159.199Z" fill="#312783"/>
<path d="M560.67 159.199H552.88V205.059H560.67V159.199Z" fill="#312783"/>
<path d="M564.84 182.129H554.7L576.09 159.199H586.23L564.84 182.129Z" fill="#312783"/>
<path d="M554.7 182.129L576.09 205.059H586.23L564.84 182.129" fill="#312783"/>
<path d="M872.49 159.199H865.79V205.059H872.49V159.199Z" fill="#312783"/>
<path d="M893.591 198.889H869.811V205.059H893.591V198.889Z" fill="#312783"/>
<path d="M893.591 159.199H869.811V165.369H893.591V159.199Z" fill="#312783"/>
<path d="M890.681 179.039H869.811V185.209H890.681V179.039Z" fill="#312783"/>
<path d="M380.01 185.859C380.01 185.859 379.97 185.88 379.96 185.88V185.77L380.01 185.859Z" fill="#312783"/>
<path d="M380.01 185.859C380.01 185.859 379.97 185.879 379.96 185.879V185.769L380.01 185.859C385.56 184.139 389.61 178.959 389.61 172.829C389.61 166.699 385.83 161.859 380.54 159.999C379.12 159.459 377.58 159.189 375.97 159.189H359.3V205.039H365.58V186.459H372.75L384.29 205.039H391.93L380.01 185.849V185.859ZM365.59 180.469V165.219H376.83C381.06 165.219 384.24 168.499 384.3 172.729C384.3 172.759 384.3 172.799 384.3 172.829C384.3 172.859 384.3 172.899 384.3 172.929C384.25 177.169 381.05 180.459 376.81 180.459H365.59V180.469Z" fill="#312783"/>
<path d="M379.95 185.77V185.88C379.95 185.88 379.99 185.859 380 185.859L379.95 185.77Z" fill="#312783"/>
<path d="M624.811 185.859C630.361 184.139 634.411 178.959 634.411 172.829C634.411 166.699 630.631 161.859 625.341 159.999C623.921 159.459 622.381 159.189 620.771 159.189H604.101V205.039H610.381V186.459H617.551C617.551 186.459 621.141 186.699 624.811 185.849M610.391 180.459V165.209H621.631C625.861 165.209 629.041 168.489 629.101 172.719C629.101 172.749 629.101 172.789 629.101 172.819C629.101 172.849 629.101 172.889 629.101 172.919C629.051 177.159 625.851 180.449 621.611 180.449H610.391V180.459Z" fill="#312783"/>
<path d="M473.12 159.199H466.2V205.059H473.12V159.199Z" fill="#312783"/>
<path d="M510.561 159.199H503.641V205.059H510.561V159.199Z" fill="#312783"/>
<path d="M482.78 205.059H493.98L510.49 159.199H503.55L488.45 198.349H488.31L473.21 159.199H466.28L482.78 205.059Z" fill="#312783"/>
<path d="M434.48 159.199H423.64L409.8 205.059H416.63L427.37 165.909H430.76L441.49 205.059H448.33L434.48 159.199Z" fill="#312783"/>
<path d="M439.82 186.729H418.42V192.839H439.82V186.729Z" fill="#312783"/>
<path d="M723.47 159.199H707.38L696.16 205.059H703L712.91 165.909H717.94L727.85 205.059H734.69L723.47 159.199Z" fill="#312783"/>
<path d="M726.18 186.729H704.78V192.839H726.18V186.729Z" fill="#312783"/>
<path d="M658.43 198.919V159.199H652.28V205.059H654.19H658.43H678.29V198.919H658.43Z" fill="#312783"/>
<path d="M775.291 159.199H768.571V205.059H775.291V159.199Z" fill="#312783"/>
<path d="M791.312 165.369V159.199H752.572V165.369H791.312Z" fill="#312783"/>
<path d="M831.91 159.199H825.19V205.059H831.91V159.199Z" fill="#312783"/>
<path d="M847.921 165.369V159.199H809.181V165.369H847.921Z" fill="#312783"/>
<path d="M261.721 139.31V119.01H264.431V129.08L274.611 119.01H278.291L269.691 127.24L278.671 139.32H275.091L267.791 129.04L264.431 132.28V139.31H261.721Z" fill="#312783"/>
<path d="M290.41 139.31V119.01H305.24V121.41H293.13V127.63H304.47V130.01H293.13V136.92H305.72V139.32H290.42L290.41 139.31Z" fill="#312783"/>
<path d="M319.62 139.31V119.01H328.71C330.54 119.01 331.93 119.19 332.88 119.56C333.83 119.93 334.59 120.57 335.16 121.49C335.73 122.41 336.01 123.43 336.01 124.55C336.01 125.99 335.54 127.2 334.6 128.19C333.66 129.18 332.2 129.81 330.24 130.07C330.96 130.41 331.5 130.75 331.88 131.08C332.67 131.8 333.42 132.7 334.13 133.78L337.7 139.31H334.29L331.58 135.09C330.79 133.87 330.13 132.94 329.62 132.29C329.11 131.64 328.65 131.19 328.24 130.93C327.83 130.67 327.42 130.49 327 130.39C326.69 130.33 326.19 130.29 325.49 130.29H322.34V139.31H319.63H319.62ZM322.33 127.97H328.16C329.4 127.97 330.37 127.84 331.07 127.59C331.77 127.34 332.3 126.93 332.66 126.37C333.02 125.81 333.21 125.2 333.21 124.55C333.21 123.59 332.86 122.8 332.15 122.18C331.45 121.56 330.33 121.25 328.81 121.25H322.32V127.97H322.33Z" fill="#312783"/>
<path d="M347.21 139.31L355.08 119.01H358L366.39 139.31H363.3L360.91 133.16H352.34L350.09 139.31H347.21ZM353.13 130.97H360.08L357.94 125.35C357.29 123.64 356.8 122.24 356.49 121.14C356.23 122.44 355.86 123.74 355.38 125.02L353.13 130.97Z" fill="#312783"/>
<path d="M380.411 139.31V119.01H384.491L389.341 133.39C389.791 134.73 390.111 135.73 390.321 136.39C390.551 135.65 390.921 134.57 391.411 133.14L396.321 119.01H399.971V139.31H397.351V122.32L391.391 139.31H388.941L383.011 122.03V139.31H380.391H380.411Z" fill="#312783"/>
<path d="M418.57 139.31V119.01H421.28V139.31H418.57Z" fill="#312783"/>
<path d="M439.04 139.31V119.01H441.75V129.08L451.93 119.01H455.61L447.01 127.24L455.99 139.32H452.41L445.11 129.04L441.75 132.28V139.31H439.04Z" fill="#312783"/>
<path d="M466.78 131.01V128.5H474.51V131.01H466.78Z" fill="#312783"/>
<path d="M487.73 139.31V119.01H495.46C496.82 119.01 497.86 119.07 498.58 119.2C499.59 119.37 500.43 119.68 501.11 120.15C501.79 120.62 502.34 121.27 502.75 122.11C503.16 122.95 503.37 123.87 503.37 124.88C503.37 126.61 502.82 128.07 501.71 129.26C500.6 130.46 498.6 131.05 495.7 131.05H490.44V139.3H487.73V139.31ZM490.44 128.66H495.74C497.49 128.66 498.74 128.34 499.47 127.69C500.21 127.04 500.57 126.13 500.57 124.96C500.57 124.11 500.35 123.39 499.92 122.78C499.49 122.17 498.91 121.78 498.21 121.58C497.75 121.46 496.91 121.4 495.68 121.4H490.44V128.66Z" fill="#312783"/>
<path d="M513.101 139.31L520.971 119.01H523.891L532.281 139.31H529.191L526.801 133.16H518.231L515.981 139.31H513.101ZM519.021 130.97H525.971L523.831 125.35C523.181 123.64 522.691 122.24 522.371 121.14C522.111 122.44 521.741 123.74 521.271 125.02L519.021 130.97Z" fill="#312783"/>
<path d="M546.37 139.31V119.01H549.15L559.92 134.95V119.01H562.52V139.31H559.74L548.97 123.36V139.31H546.37Z" fill="#312783"/>
<path d="M579.62 139.31V119.01H594.45V121.41H582.34V127.63H593.68V130.01H582.34V136.92H594.93V139.32H579.63L579.62 139.31Z" fill="#312783"/>
<path d="M606.471 139.31V119.01H621.301V121.41H609.191V127.63H620.531V130.01H609.191V136.92H621.781V139.32H606.481L606.471 139.31Z" fill="#312783"/>
<path d="M635.681 139.31V119.01H638.391V136.92H648.491V139.32H635.681V139.31Z" fill="#312783"/>
<path d="M259.51 248.301L257.605 242.078H258.695L259.686 245.67L260.055 247.006C260.07 246.939 260.178 246.512 260.377 245.723L261.367 242.078H262.451L263.383 245.688L263.693 246.877L264.051 245.676L265.117 242.078H266.143L264.197 248.301H263.102L262.111 244.574L261.871 243.514L260.611 248.301H259.51ZM268.182 248.301L266.277 242.078H267.367L268.357 245.67L268.727 247.006C268.742 246.939 268.85 246.512 269.049 245.723L270.039 242.078H271.123L272.055 245.688L272.365 246.877L272.723 245.676L273.789 242.078H274.814L272.869 248.301H271.773L270.783 244.574L270.543 243.514L269.283 248.301H268.182ZM276.854 248.301L274.949 242.078H276.039L277.029 245.67L277.398 247.006C277.414 246.939 277.521 246.512 277.721 245.723L278.711 242.078H279.795L280.727 245.688L281.037 246.877L281.395 245.676L282.461 242.078H283.486L281.541 248.301H280.445L279.455 244.574L279.215 243.514L277.955 248.301H276.854ZM284.008 248.301V247.1H285.209V248.301H284.008ZM287.055 248.301V239.711H288.109V244.609L290.605 242.078H291.971L289.592 244.387L292.211 248.301H290.91L288.854 245.119L288.109 245.834V248.301H287.055ZM297.309 246.297L298.398 246.432C298.227 247.068 297.908 247.562 297.443 247.914C296.979 248.266 296.385 248.441 295.662 248.441C294.752 248.441 294.029 248.162 293.494 247.604C292.963 247.041 292.697 246.254 292.697 245.242C292.697 244.195 292.967 243.383 293.506 242.805C294.045 242.227 294.744 241.938 295.604 241.938C296.436 241.938 297.115 242.221 297.643 242.787C298.17 243.354 298.434 244.15 298.434 245.178C298.434 245.24 298.432 245.334 298.428 245.459H293.787C293.826 246.143 294.02 246.666 294.367 247.029C294.715 247.393 295.148 247.574 295.668 247.574C296.055 247.574 296.385 247.473 296.658 247.27C296.932 247.066 297.148 246.742 297.309 246.297ZM293.846 244.592H297.32C297.273 244.068 297.141 243.676 296.922 243.414C296.586 243.008 296.15 242.805 295.615 242.805C295.131 242.805 294.723 242.967 294.391 243.291C294.062 243.615 293.881 244.049 293.846 244.592ZM299.717 248.301V242.078H300.666V243.021C300.908 242.58 301.131 242.289 301.334 242.148C301.541 242.008 301.768 241.938 302.014 241.938C302.369 241.938 302.73 242.051 303.098 242.277L302.734 243.256C302.477 243.104 302.219 243.027 301.961 243.027C301.73 243.027 301.523 243.098 301.34 243.238C301.156 243.375 301.025 243.566 300.947 243.812C300.83 244.188 300.771 244.598 300.771 245.043V248.301H299.717ZM307.785 247.533C307.395 247.865 307.018 248.1 306.654 248.236C306.295 248.373 305.908 248.441 305.494 248.441C304.811 248.441 304.285 248.275 303.918 247.943C303.551 247.607 303.367 247.18 303.367 246.66C303.367 246.355 303.436 246.078 303.572 245.828C303.713 245.574 303.895 245.371 304.117 245.219C304.344 245.066 304.598 244.951 304.879 244.873C305.086 244.818 305.398 244.766 305.816 244.715C306.668 244.613 307.295 244.492 307.697 244.352C307.701 244.207 307.703 244.115 307.703 244.076C307.703 243.646 307.604 243.344 307.404 243.168C307.135 242.93 306.734 242.811 306.203 242.811C305.707 242.811 305.34 242.898 305.102 243.074C304.867 243.246 304.693 243.553 304.58 243.994L303.549 243.854C303.643 243.412 303.797 243.057 304.012 242.787C304.227 242.514 304.537 242.305 304.943 242.16C305.35 242.012 305.82 241.938 306.355 241.938C306.887 241.938 307.318 242 307.65 242.125C307.982 242.25 308.227 242.408 308.383 242.6C308.539 242.787 308.648 243.025 308.711 243.314C308.746 243.494 308.764 243.818 308.764 244.287V245.693C308.764 246.674 308.785 247.295 308.828 247.557C308.875 247.814 308.965 248.062 309.098 248.301H307.996C307.887 248.082 307.816 247.826 307.785 247.533ZM307.697 245.178C307.314 245.334 306.74 245.467 305.975 245.576C305.541 245.639 305.234 245.709 305.055 245.787C304.875 245.865 304.736 245.98 304.639 246.133C304.541 246.281 304.492 246.447 304.492 246.631C304.492 246.912 304.598 247.146 304.809 247.334C305.023 247.521 305.336 247.615 305.746 247.615C306.152 247.615 306.514 247.527 306.83 247.352C307.146 247.172 307.379 246.928 307.527 246.619C307.641 246.381 307.697 246.029 307.697 245.564V245.178ZM310.404 248.301V242.078H311.348V242.951C311.543 242.646 311.803 242.402 312.127 242.219C312.451 242.031 312.82 241.938 313.234 241.938C313.695 241.938 314.072 242.033 314.365 242.225C314.662 242.416 314.871 242.684 314.992 243.027C315.484 242.301 316.125 241.938 316.914 241.938C317.531 241.938 318.006 242.109 318.338 242.453C318.67 242.793 318.836 243.318 318.836 244.029V248.301H317.787V244.381C317.787 243.959 317.752 243.656 317.682 243.473C317.615 243.285 317.492 243.135 317.312 243.021C317.133 242.908 316.922 242.852 316.68 242.852C316.242 242.852 315.879 242.998 315.59 243.291C315.301 243.58 315.156 244.045 315.156 244.686V248.301H314.102V244.258C314.102 243.789 314.016 243.438 313.844 243.203C313.672 242.969 313.391 242.852 313 242.852C312.703 242.852 312.428 242.93 312.174 243.086C311.924 243.242 311.742 243.471 311.629 243.771C311.516 244.072 311.459 244.506 311.459 245.072V248.301H310.404ZM320.406 240.924V239.711H321.461V240.924H320.406ZM320.406 248.301V242.078H321.461V248.301H320.406ZM323.078 248.301V239.711H324.133V244.609L326.629 242.078H327.994L325.615 244.387L328.234 248.301H326.934L324.877 245.119L324.133 245.834V248.301H323.078ZM329.072 250.686V242.078H330.033V242.887C330.26 242.57 330.516 242.334 330.801 242.178C331.086 242.018 331.432 241.938 331.838 241.938C332.369 241.938 332.838 242.074 333.244 242.348C333.65 242.621 333.957 243.008 334.164 243.508C334.371 244.004 334.475 244.549 334.475 245.143C334.475 245.779 334.359 246.354 334.129 246.865C333.902 247.373 333.57 247.764 333.133 248.037C332.699 248.307 332.242 248.441 331.762 248.441C331.41 248.441 331.094 248.367 330.812 248.219C330.535 248.07 330.307 247.883 330.127 247.656V250.686H329.072ZM330.027 245.225C330.027 246.025 330.189 246.617 330.514 247C330.838 247.383 331.23 247.574 331.691 247.574C332.16 247.574 332.561 247.377 332.893 246.982C333.229 246.584 333.396 245.969 333.396 245.137C333.396 244.344 333.232 243.75 332.904 243.355C332.58 242.961 332.191 242.764 331.738 242.764C331.289 242.764 330.891 242.975 330.543 243.396C330.199 243.814 330.027 244.424 330.027 245.225ZM335.729 248.301V239.711H336.783V248.301H335.729ZM342.484 247.533C342.094 247.865 341.717 248.1 341.354 248.236C340.994 248.373 340.607 248.441 340.193 248.441C339.51 248.441 338.984 248.275 338.617 247.943C338.25 247.607 338.066 247.18 338.066 246.66C338.066 246.355 338.135 246.078 338.271 245.828C338.412 245.574 338.594 245.371 338.816 245.219C339.043 245.066 339.297 244.951 339.578 244.873C339.785 244.818 340.098 244.766 340.516 244.715C341.367 244.613 341.994 244.492 342.396 244.352C342.4 244.207 342.402 244.115 342.402 244.076C342.402 243.646 342.303 243.344 342.104 243.168C341.834 242.93 341.434 242.811 340.902 242.811C340.406 242.811 340.039 242.898 339.801 243.074C339.566 243.246 339.393 243.553 339.279 243.994L338.248 243.854C338.342 243.412 338.496 243.057 338.711 242.787C338.926 242.514 339.236 242.305 339.643 242.16C340.049 242.012 340.52 241.938 341.055 241.938C341.586 241.938 342.018 242 342.35 242.125C342.682 242.25 342.926 242.408 343.082 242.6C343.238 242.787 343.348 243.025 343.41 243.314C343.445 243.494 343.463 243.818 343.463 244.287V245.693C343.463 246.674 343.484 247.295 343.527 247.557C343.574 247.814 343.664 248.062 343.797 248.301H342.695C342.586 248.082 342.516 247.826 342.484 247.533ZM342.396 245.178C342.014 245.334 341.439 245.467 340.674 245.576C340.24 245.639 339.934 245.709 339.754 245.787C339.574 245.865 339.436 245.98 339.338 246.133C339.24 246.281 339.191 246.447 339.191 246.631C339.191 246.912 339.297 247.146 339.508 247.334C339.723 247.521 340.035 247.615 340.445 247.615C340.852 247.615 341.213 247.527 341.529 247.352C341.846 247.172 342.078 246.928 342.227 246.619C342.34 246.381 342.396 246.029 342.396 245.564V245.178ZM347.406 247.357L347.559 248.289C347.262 248.352 346.996 248.383 346.762 248.383C346.379 248.383 346.082 248.322 345.871 248.201C345.66 248.08 345.512 247.922 345.426 247.727C345.34 247.527 345.297 247.111 345.297 246.479V242.898H344.523V242.078H345.297V240.537L346.346 239.904V242.078H347.406V242.898H346.346V246.537C346.346 246.838 346.363 247.031 346.398 247.117C346.438 247.203 346.498 247.271 346.58 247.322C346.666 247.373 346.787 247.398 346.943 247.398C347.061 247.398 347.215 247.385 347.406 247.357ZM350.746 247.357L350.898 248.289C350.602 248.352 350.336 248.383 350.102 248.383C349.719 248.383 349.422 248.322 349.211 248.201C349 248.08 348.852 247.922 348.766 247.727C348.68 247.527 348.637 247.111 348.637 246.479V242.898H347.863V242.078H348.637V240.537L349.686 239.904V242.078H350.746V242.898H349.686V246.537C349.686 246.838 349.703 247.031 349.738 247.117C349.777 247.203 349.838 247.271 349.92 247.322C350.006 247.373 350.127 247.398 350.283 247.398C350.4 247.398 350.555 247.385 350.746 247.357ZM356.043 246.297L357.133 246.432C356.961 247.068 356.643 247.562 356.178 247.914C355.713 248.266 355.119 248.441 354.396 248.441C353.486 248.441 352.764 248.162 352.229 247.604C351.697 247.041 351.432 246.254 351.432 245.242C351.432 244.195 351.701 243.383 352.24 242.805C352.779 242.227 353.479 241.938 354.338 241.938C355.17 241.938 355.85 242.221 356.377 242.787C356.904 243.354 357.168 244.15 357.168 245.178C357.168 245.24 357.166 245.334 357.162 245.459H352.521C352.561 246.143 352.754 246.666 353.102 247.029C353.449 247.393 353.883 247.574 354.402 247.574C354.789 247.574 355.119 247.473 355.393 247.27C355.666 247.066 355.883 246.742 356.043 246.297ZM352.58 244.592H356.055C356.008 244.068 355.875 243.676 355.656 243.414C355.32 243.008 354.885 242.805 354.35 242.805C353.865 242.805 353.457 242.967 353.125 243.291C352.797 243.615 352.615 244.049 352.58 244.592ZM358.762 248.301V247.1H359.963V248.301H358.762ZM365.863 246.021L366.9 246.156C366.787 246.871 366.496 247.432 366.027 247.838C365.562 248.24 364.99 248.441 364.311 248.441C363.459 248.441 362.773 248.164 362.254 247.609C361.738 247.051 361.48 246.252 361.48 245.213C361.48 244.541 361.592 243.953 361.814 243.449C362.037 242.945 362.375 242.568 362.828 242.318C363.285 242.064 363.781 241.938 364.316 241.938C364.992 241.938 365.545 242.109 365.975 242.453C366.404 242.793 366.68 243.277 366.801 243.906L365.775 244.064C365.678 243.646 365.504 243.332 365.254 243.121C365.008 242.91 364.709 242.805 364.357 242.805C363.826 242.805 363.395 242.996 363.062 243.379C362.73 243.758 362.564 244.359 362.564 245.184C362.564 246.02 362.725 246.627 363.045 247.006C363.365 247.385 363.783 247.574 364.299 247.574C364.713 247.574 365.059 247.447 365.336 247.193C365.613 246.939 365.789 246.549 365.863 246.021ZM367.41 245.189C367.41 244.037 367.73 243.184 368.371 242.629C368.906 242.168 369.559 241.938 370.328 241.938C371.184 241.938 371.883 242.219 372.426 242.781C372.969 243.34 373.24 244.113 373.24 245.102C373.24 245.902 373.119 246.533 372.877 246.994C372.639 247.451 372.289 247.807 371.828 248.061C371.371 248.314 370.871 248.441 370.328 248.441C369.457 248.441 368.752 248.162 368.213 247.604C367.678 247.045 367.41 246.24 367.41 245.189ZM368.494 245.189C368.494 245.986 368.668 246.584 369.016 246.982C369.363 247.377 369.801 247.574 370.328 247.574C370.852 247.574 371.287 247.375 371.635 246.977C371.982 246.578 372.156 245.971 372.156 245.154C372.156 244.385 371.98 243.803 371.629 243.408C371.281 243.01 370.848 242.811 370.328 242.811C369.801 242.811 369.363 243.008 369.016 243.402C368.668 243.797 368.494 244.393 368.494 245.189ZM374.482 248.301V242.078H375.426V242.951C375.621 242.646 375.881 242.402 376.205 242.219C376.529 242.031 376.898 241.938 377.312 241.938C377.773 241.938 378.15 242.033 378.443 242.225C378.74 242.416 378.949 242.684 379.07 243.027C379.562 242.301 380.203 241.938 380.992 241.938C381.609 241.938 382.084 242.109 382.416 242.453C382.748 242.793 382.914 243.318 382.914 244.029V248.301H381.865V244.381C381.865 243.959 381.83 243.656 381.76 243.473C381.693 243.285 381.57 243.135 381.391 243.021C381.211 242.908 381 242.852 380.758 242.852C380.32 242.852 379.957 242.998 379.668 243.291C379.379 243.58 379.234 244.045 379.234 244.686V248.301H378.18V244.258C378.18 243.789 378.094 243.438 377.922 243.203C377.75 242.969 377.469 242.852 377.078 242.852C376.781 242.852 376.506 242.93 376.252 243.086C376.002 243.242 375.82 243.471 375.707 243.771C375.594 244.072 375.537 244.506 375.537 245.072V248.301H374.482Z" fill="#312783"/>
<path d="M270.19 159.199H262.4V205.059H270.19V159.199Z" fill="#312783"/>
<path d="M274.37 182.129H264.23L285.61 159.199H295.75L274.37 182.129Z" fill="#312783"/>
<path d="M264.23 182.129L285.61 205.059H295.75L274.37 182.129" fill="#312783"/>
<path d="M320.33 159.199H313.63V205.059H320.33V159.199Z" fill="#312783"/>
<path d="M341.429 198.889H317.649V205.059H341.429V198.889Z" fill="#312783"/>
<path d="M341.429 159.199H317.649V165.369H341.429V159.199Z" fill="#312783"/>
<path d="M338.519 179.039H317.649V185.209H338.519V179.039Z" fill="#312783"/>
<defs>
<linearGradient id="paint0_linear_72_120" x1="0" y1="123.51" x2="218.74" y2="123.51" gradientUnits="userSpaceOnUse">
<stop stop-color="#EFC981"/>
<stop offset="0.11" stop-color="#E6C081"/>
<stop offset="0.42" stop-color="#C98C22"/>
<stop offset="1" stop-color="#C58511"/>
</linearGradient>
</defs>
</svg>
